<svg xmlns="http://www.w3.org/2000/svg" width="26.93" height="25.654" viewBox="0 0 26.93 25.654">
  <path id="Icon_metro-shopping-basket2" data-name="Icon metro-shopping-basket2" d="M28.211,11.395H21.276l-2.51,2.51a3.325,3.325,0,0,1-5.674-2.349c0-.054.014-.107.015-.161H4.944a.83.83,0,0,0-.831.831V15.55h24.93V12.226a.832.832,0,0,0-.832-.831ZM17.642,12.778l7-7a.83.83,0,0,0,0-1.176L23.371,3.327a.836.836,0,0,0-1.177,0l-7,7a1.731,1.731,0,1,0,2.449,2.449ZM8.023,25.62a1.392,1.392,0,0,0,1.284,1.01H23.849a1.392,1.392,0,0,0,1.284-1.01l2.109-8.685H5.914L8.023,25.62Z" transform="translate(-3.113 -1.975)" fill="none" stroke="#fbfbfb" stroke-width="2"/>
</svg>
