<svg id="home-delivery" xmlns="http://www.w3.org/2000/svg" width="51.2" height="40.188" viewBox="0 0 51.2 40.188">
  <path id="Path_23536" data-name="Path 23536" d="M36.073-452.929c-6.134.031-6.8.051-6.971.2s-.184.592-.184,9.236v9.063h-2.7c-3.021,0-3.164.031-3.46.653a1.857,1.857,0,0,0-.163.663v.316l-.531-.3a8.974,8.974,0,0,0-1.368-.561,5.215,5.215,0,0,1-.98-.4,7.271,7.271,0,0,1-.8-1.684,2.1,2.1,0,0,1,.418-.541A5.964,5.964,0,0,0,20.723-440c.071-.98-.153-.806,1.735-1.357,1.317-.388,1.439-.459,1.623-.888.194-.47.1-.8-.439-1.49a3.455,3.455,0,0,0-2.8-1.48l-.765-.061-.3-.755c-.643-1.7-2.347-2.684-4.644-2.684-2.868,0-4.95,1.643-5.307,4.185A6.51,6.51,0,0,0,10-442l.143.653-.255.2a1.967,1.967,0,0,0-.551,2.092,2,2,0,0,0,1.776,1.153c.388,0,.429.031.765.582a7.2,7.2,0,0,0,.847,1.123l.5.531-.286.745-.276.745-3.113,1.888c-1.715,1.041-3.266,2.021-3.439,2.194a2.852,2.852,0,0,0-.837,1.725,30.342,30.342,0,0,0,.674,4.389c.623,3.388.735,3.9.949,4.1.378.388.765.4,1.429.061L8.9-420.1l2.225,1.766a29.207,29.207,0,0,0,2.786,2.051,2.674,2.674,0,0,0,1.582.265,6.813,6.813,0,0,0,2.449-.429A37.016,37.016,0,0,1,23-417.626c1.021-.153,4.8-.469,5.624-.469h.4v4.082H27.806c-1.357,0-1.541.072-1.541.612,0,.663-1.031.623,15.156.551,14.054-.072,14.686-.082,14.87-.265a.517.517,0,0,0-.02-.8c-.184-.184-.337-.2-1.357-.2H53.75l-.061-9.665c-.041-5.307-.071-13.962-.071-19.218v-9.563l-.235-.214L53.148-453l-5.154.02C45.167-452.959,39.8-452.939,36.073-452.929Zm16.35,19.953c.041,10.339.061,18.8.041,18.81s-5.011.051-11.125.092l-11.094.061.02-2.113.031-2.113.316-.082a1.029,1.029,0,0,0,.449-.235.421.421,0,0,1,.214-.153,6.733,6.733,0,0,1,.092,1.562c0,1.184.031,1.613.143,1.766.174.225-.99.2,11.421.173,7.777-.031,8.042-.041,8.226-.225s.2-.51.143-17.483l-.051-17.279L51-450.418l-.245-.225-9.573.061c-8.359.051-9.583.082-9.737.214-.174.143-.184.653-.184,8.053v7.889H30.144v-17.248l6.205-.031c3.409-.01,8.4-.031,11.1-.051l4.909-.02Zm-2.347,0c.031,9.053.041,16.473.041,16.483s-3.96.031-8.777.051l-8.747.031v-3.521h2.613c2.164,0,2.674-.031,2.95-.163.684-.316.663-.153.663-7.083,0-5.573-.02-6.287-.163-6.593-.3-.623-.439-.653-3.46-.653h-2.7v-14.9l6.1-.031c3.348-.01,7.287-.031,8.757-.051l2.664-.02ZM16.978-447.2a4.364,4.364,0,0,1,.959.551,2.477,2.477,0,0,1,.776,1.266c0,.071-.347.133-.949.163-1.582.082-2.143.439-3.45,2.194l-.7.949H11.181l-.122-.847a3.754,3.754,0,0,1,.827-3.286,3.912,3.912,0,0,1,3.46-1.235A4.81,4.81,0,0,1,16.978-447.2Zm1.531,3.266a5.542,5.542,0,0,1-.8.857c-.868.847-1.286,1.041-2.113.98l-.449-.031.48-.623a2.971,2.971,0,0,1,1.408-1.163A3.351,3.351,0,0,1,18.509-443.937Zm3.246.184c.469.235,1.143.888,1.031,1a12.1,12.1,0,0,1-1.99.541,2.75,2.75,0,0,1-.143-.643c-.051-.337-.122-.725-.163-.888-.051-.265-.041-.276.337-.276A2.443,2.443,0,0,1,21.754-443.753Zm-2.256,3.1c-.071,2.4-.582,3.48-1.949,4.184a2.536,2.536,0,0,1-1.582.357,2.576,2.576,0,0,1-1.459-.286,4.529,4.529,0,0,1-1.909-2.1,12.946,12.946,0,0,1-.929-2.245,17.01,17.01,0,0,1,2.531-.133c2.5-.031,2.521-.031,3.082-.306a5.766,5.766,0,0,0,1.327-1.051l.765-.776.082.439A13.975,13.975,0,0,1,19.5-440.651Zm-8.716,1.082.174.469-.235-.143a.7.7,0,0,1-.255-.48C10.415-440.191,10.579-440.11,10.783-439.569Zm4.746,4.695a4.937,4.937,0,0,0,1.3-.061c1.031-.2.97-.235,1.357.653l.347.8-.48,1.96c-.265,1.072-.521,1.99-.561,2.031s-.276-.265-.521-.7a12.092,12.092,0,0,0-1.7-2.174c-.694-.765-1.286-1.439-1.306-1.5a1.9,1.9,0,0,1,.163-.684c.2-.541.225-.572.469-.48A4.177,4.177,0,0,0,15.529-434.874Zm12.166,2.235v.561H23.816V-433.2h3.878Zm4.8,1.133v1.694l-.378-.235c-.214-.122-.582-.357-.816-.52a1.822,1.822,0,0,0-.592-.286,1.822,1.822,0,0,0-.592.286c-.235.163-.6.4-.806.52l-.388.235V-433.2h3.572Zm5.1-1.133v.561H33.716V-433.2h3.878Zm-23.484.786a4.976,4.976,0,0,1,.623.776,7.052,7.052,0,0,1-1.582.816,12.672,12.672,0,0,1-1.317-1.99c.051-.02.347-.194.653-.388l.561-.347.214.225C13.385-432.639,13.763-432.231,14.11-431.853Zm6.226-.612c.265.092.265.194,0,1.408l-.112.51-.48-.378-.49-.388.143-.561C19.631-432.8,19.56-432.761,20.336-432.465Zm1.919.959.337.255v4.338c0,2.378-.02,4.327-.051,4.327s-1.5.316-3.266.714-3.327.714-3.46.714c-.214,0-.4-.2-1.031-1.143a15.619,15.619,0,0,1-1.592-3.082,21.951,21.951,0,0,0-.99-2.133.574.574,0,0,0-.949.2c-.092.245.061.674,1.276,3.521l.163.378-2.419,1.225c-1.327.684-2.439,1.235-2.47,1.235-.122,0-1.368-7.124-1.3-7.471.122-.633.337-.8,3.9-2.95l.316-.194.939,1.317a5.974,5.974,0,0,0,1.143,1.368,3.766,3.766,0,0,0,1.439-.551,6.684,6.684,0,0,1,1.347-.572,10.984,10.984,0,0,1,.908,1.429,8.659,8.659,0,0,0,.949,1.439c.541.214.776-.092,1.112-1.48a7.388,7.388,0,0,1,.367-1.255c.041-.051.367.133.735.418.806.643.99.7,1.306.449.214-.163.3-.4.5-1.48a5.021,5.021,0,0,1,.337-1.286A1.316,1.316,0,0,1,22.254-431.506Zm5.46,1.888c.031,1.082.051,1.245.225,1.378.347.255.623.163,1.715-.551l1.051-.694,1.072.694c1.092.714,1.347.8,1.694.551.174-.133.194-.3.225-1.378l.041-1.235h3.858v9.7H28.113l.153-.367A1.478,1.478,0,0,0,27-423.5a13.727,13.727,0,0,0-1.7.306c-.755.163-1.4.306-1.429.306s-.051-1.8-.051-3.98v-3.98h3.858Zm-13.7,8.359c.714,1.031,1.112,1.327,1.755,1.327.214,0,2.368-.439,4.8-.97s4.868-1.082,5.419-1.194c.868-.194,1.021-.2,1.1-.071.2.327.184.337-2.286.919a10.14,10.14,0,0,0-1.541.439.524.524,0,0,0-.041.816l.235.265,3.4-.112a16.694,16.694,0,0,1,3.511-.01c.316.316-.133.4-3.388.633a35.492,35.492,0,0,0-9.43,1.6c-1.776.51-2.511.551-3.2.194-.276-.143-3.633-2.756-4.093-3.184-.112-.1.112-.255,1.378-.9a12.019,12.019,0,0,1,1.623-.735A5.678,5.678,0,0,1,14.018-421.259Z" transform="translate(-5.268 453)" fill="#e31d1a"/>
  <path id="Path_23537" data-name="Path 23537" d="M387.424-272.736a1.945,1.945,0,0,0-.918,2.939,1.936,1.936,0,0,0,3.021.2,1.752,1.752,0,0,0,.49-1.368,1.861,1.861,0,0,0-1.245-1.766A1.63,1.63,0,0,0,387.424-272.736Zm.99,1.184a.591.591,0,0,1,.378.663.718.718,0,0,1-1.245.459.678.678,0,0,1,.072-.98A.558.558,0,0,1,388.414-271.552Z" transform="translate(-347.281 291.259)" fill="#e31d1a"/>
  <path id="Path_23538" data-name="Path 23538" d="M98.572-313.778a2.832,2.832,0,0,0-.5.357c-.316.276-.388.3-.868.245-1.174-.143-1.317-.133-1.449.133-.286.561.286,1.021,1.337,1.112a2.142,2.142,0,0,0,1.929-.7c.439-.48.459-.714.1-1C98.837-313.86,98.817-313.87,98.572-313.778Z" transform="translate(-86.454 328.036)" fill="#e31d1a"/>
  <path id="Path_23539" data-name="Path 23539" d="M265.956-186.867a.6.6,0,0,0,.041.908c.2.163.449.184,2.153.184,1.8,0,1.939-.01,2.133-.2a.545.545,0,0,0,.041-.8c-.153-.214-.2-.225-2.174-.225A6.859,6.859,0,0,0,265.956-186.867Z" transform="translate(-239.182 214.148)" fill="#e31d1a"/>
  <path id="Path_23540" data-name="Path 23540" d="M252.264-167.837a.6.6,0,0,0-.041.888c.163.153.521.173,2.909.173,2.684,0,2.715,0,2.868-.225a.545.545,0,0,0-.041-.8c-.194-.194-.337-.2-2.837-.2C252.907-168,252.458-167.98,252.264-167.837Z" transform="translate(-226.858 197.087)" fill="#e31d1a"/>
</svg>
