<svg xmlns="http://www.w3.org/2000/svg" width="47.999" height="45.595" viewBox="0 0 47.999 45.595">
  <path id="Icon_metro-shopping-basket2" data-name="Icon metro-shopping-basket2" d="M48.576,18.418h-12.8L31.15,23.048a6.135,6.135,0,0,1-10.47-4.334c0-.1.026-.2.028-.3H5.646a1.531,1.531,0,0,0-1.533,1.533v6.133h46V19.951a1.535,1.535,0,0,0-1.536-1.533Zm-19.5,2.553L41.993,8.053A1.532,1.532,0,0,0,42,5.883L39.647,3.532a1.542,1.542,0,0,0-2.172,0L24.557,16.453a3.195,3.195,0,0,0,4.518,4.518ZM11.327,44.665A2.568,2.568,0,0,0,13.7,46.528H40.529A2.568,2.568,0,0,0,42.9,44.665L46.79,28.64H7.435l3.892,16.025Z" transform="translate(-3.113 -1.933)" fill="none" stroke="#e31d1a" stroke-width="2"/>
</svg>
