<svg id="location-_2_" xmlns="http://www.w3.org/2000/svg" width="40.842" height="55.629" viewBox="0 0 40.842 55.629">
  <path id="Path_23545" data-name="Path 23545" d="M97.867-495.731a20.133,20.133,0,0,0-12.094,6.1,20.26,20.26,0,0,0-5.606,11.989,15.15,15.15,0,0,0,1.207,7.939c1.985,4.921,5.71,10.4,12.361,18.141a1.681,1.681,0,0,1,.348.487c-.023.012-.8.116-1.729.221-5.675.638-9.726,2.02-10.875,3.726-1.683,2.472,1.068,4.666,7.393,5.919a56.047,56.047,0,0,0,11.664.928,56.445,56.445,0,0,0,9.807-.627c6.523-.986,10.028-2.913,9.587-5.269a3.62,3.62,0,0,0-1.567-2.008c-1.822-1.219-5.71-2.263-10.121-2.727a5.556,5.556,0,0,1-1.358-.232c.023-.046.592-.72,1.265-1.509q8.6-10.01,11.432-17.05a15.051,15.051,0,0,0,1.207-7.939,20.557,20.557,0,0,0-9.865-15.4A20.429,20.429,0,0,0,97.867-495.731Zm6.14,2.019A18.553,18.553,0,0,1,119.014-476.3a14.479,14.479,0,0,1-1.59,6.964c-2.4,5.4-8.577,13.649-15.6,20.845l-1.346,1.381-1.346-1.381a123.2,123.2,0,0,1-10.608-12.535c-3.47-4.828-5.316-8.357-6.349-12.14a17.242,17.242,0,0,1,.058-5.768,18.556,18.556,0,0,1,15.343-14.879A13.542,13.542,0,0,1,101-493.99,17.7,17.7,0,0,1,104.007-493.711Zm-6.14,46.6c2.031,2.1,2.24,2.275,2.611,2.275s.569-.174,2.577-2.24l2.182-2.24.6.035c.337.023,1.323.116,2.182.209,4.7.534,8.357,1.555,9.691,2.727.5.441.511.662.035,1.114-1.358,1.288-5.838,2.426-11.641,2.96a106.04,106.04,0,0,1-11.2,0c-5.792-.522-10.376-1.671-11.7-2.948-.476-.476-.464-.685.035-1.126,1.532-1.346,5.919-2.437,11.838-2.948.255-.023.487-.046.522-.058S96.66-448.354,97.867-447.112Z" transform="translate(-80.059 495.905)" fill="#aca7a7"/>
  <path id="Path_23546" data-name="Path 23546" d="M141.407-447.833a15.107,15.107,0,0,0-8.856,4.294,14.811,14.811,0,0,0-.7,20.23,14.775,14.775,0,0,0,21.762.6,14.3,14.3,0,0,0,3.517-5.745,16.149,16.149,0,0,0,.754-4.608,16.273,16.273,0,0,0-1.509-6.511,15.7,15.7,0,0,0-6.825-6.824A15.854,15.854,0,0,0,141.407-447.833Zm3.656,1.95a13.081,13.081,0,0,1,10.759,10.446,20.391,20.391,0,0,1,0,4.759,13.245,13.245,0,0,1-10.411,10.411,20.389,20.389,0,0,1-4.759,0A13.112,13.112,0,0,1,131.565-427a12.825,12.825,0,0,1-.081-11.978A12.988,12.988,0,0,1,145.063-445.883Z" transform="translate(-122.612 453.474)" fill="#aca7a7"/>
  <path id="Path_23547" data-name="Path 23547" d="M185.288-391.791c-.2.151-.383.685-.766,2.228L184-387.532v11.676l.29.279.279.29h15.576l.279-.29.29-.279v-11.676l-.522-2.031c-.383-1.544-.569-2.078-.766-2.228-.232-.2-.743-.209-7.068-.209S185.52-391.988,185.288-391.791Zm4.283,2.577v.928h-3.459l.232-.928.232-.928h2.994Zm3.714,0v.928h-1.857v-1.857h1.857Zm5.084,0,.232.928h-3.459v-1.857h2.994Zm-8.8,4.352c0,1.52.012,1.59.29,1.857.279.29.3.29,2.5.29s2.217,0,2.5-.29c.279-.267.29-.337.29-1.857v-1.567h3.714v9.285h-13v-9.285h3.714Zm3.714-.638v.929h-1.857v-1.857h1.857Z" transform="translate(-171.936 404.06)" fill="#aca7a7"/>
  <path id="Path_23548" data-name="Path 23548" d="M264.29-287.71a.9.9,0,0,0-.29.638.9.9,0,0,0,.29.638c.267.279.325.29,2.031.29s1.764-.012,2.031-.29a.9.9,0,0,0,.29-.638.9.9,0,0,0-.29-.638c-.267-.279-.325-.29-2.031-.29S264.557-287.988,264.29-287.71Z" transform="translate(-242.651 312.13)" fill="#aca7a7"/>
</svg>
